# xmcd
#
# Track frame offsets:
#	150
#	10888
#	31093
#	43208
#	55342
#	65829
#	78482
#	92664
#	106130
#	119518
#	131516
#	142358
#	153107
#	167175
#	178111
#
# Disc length: 2530 seconds
#
# Revision: 0
# Processed by: cddbd v1.5.2PL0 Copyright (c) Steve Scherf et al.
# Submitted via: EasyCDDAExtractor 16.0.6.1
#
DISCID=d109e00f
DTITLE=Συλλογικός δίσκος - Τα καλύτερα ξένα τραγούδια 1964
DYEAR=1964
DGENRE=Ξένη
TTITLE0=Manfred Mann - Do-Wah-Diddy-Diddy
TTITLE1=The Animals - The House Of The Rising Sun
TTITLE2=Little Tony - Quando Vedrai La Mia Ragazza
TTITLE3=Bobby Vinton - Mr Lonely
TTITLE4=The Swinging Blue Jeans - You're No Good
TTITLE5=Shirley Bassey - Goldfinger
TTITLE6=Nico Fidenco - A Casa D'irene
TTITLE7=Roy Orbison - Oh, Pretty Woman
TTITLE8=Cilla Black - You're My World
TTITLE9=Rita Pavone - Lui
TTITLE10=Jerry and The Pacemakers - Ferry Cross The Mersey
TTITLE11=Louis Armstrong - Hello Dolly
TTITLE12=Little Anthony and The Imperials - Goin' Out Of My Head
TTITLE13=Bobby Solo - Una Lacrima Sul Viso
TTITLE14=Johnny Rivers - Memphis
EXTD=
EXTT0=
EXTT1=
EXTT2=
EXTT3=
EXTT4=
EXTT5=
EXTT6=
EXTT7=
EXTT8=
EXTT9=
EXTT10=
EXTT11=
EXTT12=
EXTT13=
EXTT14=
PLAYORDER=
